solid OpenSCAD_Model
  facet normal 0.866029 0.499993 0
    outer loop
      vertex 41.1095 58.3031 40
      vertex 36.4058 66.4503 0
      vertex 36.4058 66.4503 40
    endloop
  endfacet
  facet normal 0.866029 0.499993 0
    outer loop
      vertex 36.4058 66.4503 0
      vertex 41.1095 58.3031 40
      vertex 41.1095 58.3031 0
    endloop
  endfacet
  facet normal -0.951056 0.309018 0
    outer loop
      vertex -44.0166 49.356 0
      vertex -41.1095 58.3031 40
      vertex -41.1095 58.3031 0
    endloop
  endfacet
  facet normal -0.951056 0.309018 0
    outer loop
      vertex -41.1095 58.3031 40
      vertex -44.0166 49.356 0
      vertex -44.0166 49.356 40
    endloop
  endfacet
  facet normal 0.743145 0.66913 0
    outer loop
      vertex 36.4058 66.4503 40
      vertex 30.1109 73.4415 0
      vertex 30.1109 73.4415 40
    endloop
  endfacet
  facet normal 0.743145 0.66913 0
    outer loop
      vertex 30.1109 73.4415 0
      vertex 36.4058 66.4503 40
      vertex 36.4058 66.4503 0
    endloop
  endfacet
  facet normal 0.207917 0.978147 -0
    outer loop
      vertex 13.9058 82.7975 0
      vertex 4.70378 84.7535 40
      vertex 13.9058 82.7975 40
    endloop
  endfacet
  facet normal 0.207917 0.978147 0
    outer loop
      vertex 4.70378 84.7535 40
      vertex 13.9058 82.7975 0
      vertex 4.70378 84.7535 0
    endloop
  endfacet
  facet normal 0.406738 0.913545 -0
    outer loop
      vertex 22.5 78.9711 0
      vertex 13.9058 82.7975 40
      vertex 22.5 78.9711 40
    endloop
  endfacet
  facet normal 0.406738 0.913545 0
    outer loop
      vertex 13.9058 82.7975 40
      vertex 22.5 78.9711 0
      vertex 13.9058 82.7975 0
    endloop
  endfacet
  facet normal -0.406738 0.913545 0
    outer loop
      vertex -13.9058 82.7975 0
      vertex -22.5 78.9711 40
      vertex -13.9058 82.7975 40
    endloop
  endfacet
  facet normal -0.406738 0.913545 0
    outer loop
      vertex -22.5 78.9711 40
      vertex -13.9058 82.7975 0
      vertex -22.5 78.9711 0
    endloop
  endfacet
  facet normal -0.866029 0.499993 0
    outer loop
      vertex -41.1095 58.3031 0
      vertex -36.4058 66.4503 40
      vertex -36.4058 66.4503 0
    endloop
  endfacet
  facet normal -0.866029 0.499993 0
    outer loop
      vertex -36.4058 66.4503 40
      vertex -41.1095 58.3031 0
      vertex -41.1095 58.3031 40
    endloop
  endfacet
  facet normal -0.587782 0.809019 0
    outer loop
      vertex -22.5 78.9711 0
      vertex -30.1109 73.4415 40
      vertex -22.5 78.9711 40
    endloop
  endfacet
  facet normal -0.587782 0.809019 0
    outer loop
      vertex -30.1109 73.4415 40
      vertex -22.5 78.9711 0
      vertex -30.1109 73.4415 0
    endloop
  endfacet
  facet normal 0.994521 -0.104533 0
    outer loop
      vertex 44.0166 30.644 40
      vertex 45 40 0
      vertex 45 40 40
    endloop
  endfacet
  facet normal 0.994521 -0.104533 0
    outer loop
      vertex 45 40 0
      vertex 44.0166 30.644 40
      vertex 44.0166 30.644 0
    endloop
  endfacet
  facet normal 0 1 -0
    outer loop
      vertex 4.70378 84.7535 0
      vertex -4.70378 84.7535 40
      vertex 4.70378 84.7535 40
    endloop
  endfacet
  facet normal 0 1 0
    outer loop
      vertex -4.70378 84.7535 40
      vertex 4.70378 84.7535 0
      vertex -4.70378 84.7535 0
    endloop
  endfacet
  facet normal 0.587782 0.809019 -0
    outer loop
      vertex 30.1109 73.4415 0
      vertex 22.5 78.9711 40
      vertex 30.1109 73.4415 40
    endloop
  endfacet
  facet normal 0.587782 0.809019 0
    outer loop
      vertex 22.5 78.9711 40
      vertex 30.1109 73.4415 0
      vertex 22.5 78.9711 0
    endloop
  endfacet
  facet normal -0.994521 0.104533 0
    outer loop
      vertex -45 40 0
      vertex -44.0166 49.356 40
      vertex -44.0166 49.356 0
    endloop
  endfacet
  facet normal -0.994521 0.104533 0
    outer loop
      vertex -44.0166 49.356 40
      vertex -45 40 0
      vertex -45 40 40
    endloop
  endfacet
  facet normal -0.743145 0.66913 0
    outer loop
      vertex -36.4058 66.4503 0
      vertex -30.1109 73.4415 40
      vertex -30.1109 73.4415 0
    endloop
  endfacet
  facet normal -0.743145 0.66913 0
    outer loop
      vertex -30.1109 73.4415 40
      vertex -36.4058 66.4503 0
      vertex -36.4058 66.4503 40
    endloop
  endfacet
  facet normal -0.207917 0.978147 0
    outer loop
      vertex -4.70378 84.7535 0
      vertex -13.9058 82.7975 40
      vertex -4.70378 84.7535 40
    endloop
  endfacet
  facet normal -0.207917 0.978147 0
    outer loop
      vertex -13.9058 82.7975 40
      vertex -4.70378 84.7535 0
      vertex -13.9058 82.7975 0
    endloop
  endfacet
  facet normal 0.994521 0.104533 0
    outer loop
      vertex 45 40 40
      vertex 44.0166 49.356 0
      vertex 44.0166 49.356 40
    endloop
  endfacet
  facet normal 0.994521 0.104533 0
    outer loop
      vertex 44.0166 49.356 0
      vertex 45 40 40
      vertex 45 40 0
    endloop
  endfacet
  facet normal 0.951056 -0.309018 0
    outer loop
      vertex 41.1095 21.6969 40
      vertex 44.0166 30.644 0
      vertex 44.0166 30.644 40
    endloop
  endfacet
  facet normal 0.951056 -0.309018 0
    outer loop
      vertex 44.0166 30.644 0
      vertex 41.1095 21.6969 40
      vertex 41.1095 21.6969 0
    endloop
  endfacet
  facet normal -0.587784 -0.809018 0
    outer loop
      vertex -30.1109 6.55848 0
      vertex -22.5 1.02886 40
      vertex -30.1109 6.55848 40
    endloop
  endfacet
  facet normal -0.587784 -0.809018 -0
    outer loop
      vertex -22.5 1.02886 40
      vertex -30.1109 6.55848 0
      vertex -22.5 1.02886 0
    endloop
  endfacet
  facet normal -0.866029 -0.499993 0
    outer loop
      vertex -36.4058 13.5497 0
      vertex -41.1095 21.6969 40
      vertex -41.1095 21.6969 0
    endloop
  endfacet
  facet normal -0.866029 -0.499993 0
    outer loop
      vertex -41.1095 21.6969 40
      vertex -36.4058 13.5497 0
      vertex -36.4058 13.5497 40
    endloop
  endfacet
  facet normal 0.587784 -0.809018 0
    outer loop
      vertex 22.5 1.02886 0
      vertex 30.1109 6.55848 40
      vertex 22.5 1.02886 40
    endloop
  endfacet
  facet normal 0.587784 -0.809018 0
    outer loop
      vertex 30.1109 6.55848 40
      vertex 22.5 1.02886 0
      vertex 30.1109 6.55848 0
    endloop
  endfacet
  facet normal 0.951056 0.309018 0
    outer loop
      vertex 44.0166 49.356 40
      vertex 41.1095 58.3031 0
      vertex 41.1095 58.3031 40
    endloop
  endfacet
  facet normal 0.951056 0.309018 0
    outer loop
      vertex 41.1095 58.3031 0
      vertex 44.0166 49.356 40
      vertex 44.0166 49.356 0
    endloop
  endfacet
  facet normal 0 0 1
    outer loop
      vertex 44 40 40
      vertex 45 40 40
      vertex 44.0166 49.356 40
    endloop
  endfacet
  facet normal 0 0 1
    outer loop
      vertex 45 40 40
      vertex 44 40 40
      vertex 44.0166 30.644 40
    endloop
  endfacet
  facet normal 0 0 1
    outer loop
      vertex 44.0166 49.356 40
      vertex 43.0385 49.1481 40
      vertex 44 40 40
    endloop
  endfacet
  facet normal 0 0 1
    outer loop
      vertex 41.1095 58.3031 40
      vertex 43.0385 49.1481 40
      vertex 44.0166 49.356 40
    endloop
  endfacet
  facet normal 0 0 1
    outer loop
      vertex 41.1095 58.3031 40
      vertex 40.196 57.8964 40
      vertex 43.0385 49.1481 40
    endloop
  endfacet
  facet normal 0 0 1
    outer loop
      vertex 36.4058 66.4503 40
      vertex 40.196 57.8964 40
      vertex 41.1095 58.3031 40
    endloop
  endfacet
  facet normal 0 0 1
    outer loop
      vertex 36.4058 66.4503 40
      vertex 35.5967 65.8625 40
      vertex 40.196 57.8964 40
    endloop
  endfacet
  facet normal 0 0 1
    outer loop
      vertex 30.1109 73.4415 40
      vertex 35.5967 65.8625 40
      vertex 36.4058 66.4503 40
    endloop
  endfacet
  facet normal 0 0 1
    outer loop
      vertex 30.1109 73.4415 40
      vertex 29.4417 72.6984 40
      vertex 35.5967 65.8625 40
    endloop
  endfacet
  facet normal 0 0 1
    outer loop
      vertex 22.5 78.9711 40
      vertex 29.4417 72.6984 40
      vertex 30.1109 73.4415 40
    endloop
  endfacet
  facet normal 0 0 1
    outer loop
      vertex 22.5 78.9711 40
      vertex 22 78.1051 40
      vertex 29.4417 72.6984 40
    endloop
  endfacet
  facet normal 0 0 1
    outer loop
      vertex 13.9058 82.7975 40
      vertex 22 78.1051 40
      vertex 22.5 78.9711 40
    endloop
  endfacet
  facet normal 0 0 1
    outer loop
      vertex 13.9058 82.7975 40
      vertex 13.5967 81.8465 40
      vertex 22 78.1051 40
    endloop
  endfacet
  facet normal 0 0 1
    outer loop
      vertex 4.70378 84.7535 40
      vertex 13.5967 81.8465 40
      vertex 13.9058 82.7975 40
    endloop
  endfacet
  facet normal 0 0 1
    outer loop
      vertex 4.70378 84.7535 40
      vertex 4.59925 83.759 40
      vertex 13.5967 81.8465 40
    endloop
  endfacet
  facet normal 0 0 1
    outer loop
      vertex 4.70378 84.7535 40
      vertex -4.59925 83.759 40
      vertex 4.59925 83.759 40
    endloop
  endfacet
  facet normal -0 0 1
    outer loop
      vertex -4.70378 84.7535 40
      vertex -4.59925 83.759 40
      vertex 4.70378 84.7535 40
    endloop
  endfacet
  facet normal 0 0 1
    outer loop
      vertex -4.70378 84.7535 40
      vertex -13.5967 81.8465 40
      vertex -4.59925 83.759 40
    endloop
  endfacet
  facet normal -0 0 1
    outer loop
      vertex -13.9058 82.7975 40
      vertex -13.5967 81.8465 40
      vertex -4.70378 84.7535 40
    endloop
  endfacet
  facet normal 0 0 1
    outer loop
      vertex -13.9058 82.7975 40
      vertex -22 78.1051 40
      vertex -13.5967 81.8465 40
    endloop
  endfacet
  facet normal -0 0 1
    outer loop
      vertex -22.5 78.9711 40
      vertex -22 78.1051 40
      vertex -13.9058 82.7975 40
    endloop
  endfacet
  facet normal 0 0 1
    outer loop
      vertex -22.5 78.9711 40
      vertex -29.4417 72.6984 40
      vertex -22 78.1051 40
    endloop
  endfacet
  facet normal -0 0 1
    outer loop
      vertex -30.1109 73.4415 40
      vertex -29.4417 72.6984 40
      vertex -22.5 78.9711 40
    endloop
  endfacet
  facet normal 0 0 1
    outer loop
      vertex -30.1109 73.4415 40
      vertex -35.5967 65.8625 40
      vertex -29.4417 72.6984 40
    endloop
  endfacet
  facet normal -0 0 1
    outer loop
      vertex -36.4058 66.4503 40
      vertex -35.5967 65.8625 40
      vertex -30.1109 73.4415 40
    endloop
  endfacet
  facet normal 0 0 1
    outer loop
      vertex -36.4058 66.4503 40
      vertex -40.196 57.8964 40
      vertex -35.5967 65.8625 40
    endloop
  endfacet
  facet normal -0 0 1
    outer loop
      vertex -41.1095 58.3031 40
      vertex -40.196 57.8964 40
      vertex -36.4058 66.4503 40
    endloop
  endfacet
  facet normal 0 0 1
    outer loop
      vertex -41.1095 58.3031 40
      vertex -43.0385 49.1481 40
      vertex -40.196 57.8964 40
    endloop
  endfacet
  facet normal 0 0 1
    outer loop
      vertex -43.0385 49.1481 40
      vertex -44.0166 49.356 40
      vertex -44 40 40
    endloop
  endfacet
  facet normal -0 0 1
    outer loop
      vertex -44.0166 49.356 40
      vertex -43.0385 49.1481 40
      vertex -41.1095 58.3031 40
    endloop
  endfacet
  facet normal -0 0 1
    outer loop
      vertex 43.0385 30.8519 40
      vertex 44.0166 30.644 40
      vertex 44 40 40
    endloop
  endfacet
  facet normal 0 0 1
    outer loop
      vertex 43.0385 30.8519 40
      vertex 41.1095 21.6969 40
      vertex 44.0166 30.644 40
    endloop
  endfacet
  facet normal -0 0 1
    outer loop
      vertex 40.196 22.1036 40
      vertex 41.1095 21.6969 40
      vertex 43.0385 30.8519 40
    endloop
  endfacet
  facet normal 0 0 1
    outer loop
      vertex 40.196 22.1036 40
      vertex 36.4058 13.5497 40
      vertex 41.1095 21.6969 40
    endloop
  endfacet
  facet normal -0 0 1
    outer loop
      vertex 35.5967 14.1374 40
      vertex 36.4058 13.5497 40
      vertex 40.196 22.1036 40
    endloop
  endfacet
  facet normal 0 0 1
    outer loop
      vertex 35.5967 14.1374 40
      vertex 30.1109 6.55848 40
      vertex 36.4058 13.5497 40
    endloop
  endfacet
  facet normal -0 0 1
    outer loop
      vertex 29.4417 7.30163 40
      vertex 30.1109 6.55848 40
      vertex 35.5967 14.1374 40
    endloop
  endfacet
  facet normal 0 0 1
    outer loop
      vertex 29.4417 7.30163 40
      vertex 22.5 1.02886 40
      vertex 30.1109 6.55848 40
    endloop
  endfacet
  facet normal -0 0 1
    outer loop
      vertex 22 1.89488 40
      vertex 22.5 1.02886 40
      vertex 29.4417 7.30163 40
    endloop
  endfacet
  facet normal 0 0 1
    outer loop
      vertex 22 1.89488 40
      vertex 13.9058 -2.79754 40
      vertex 22.5 1.02886 40
    endloop
  endfacet
  facet normal -0 0 1
    outer loop
      vertex 13.5967 -1.84649 40
      vertex 13.9058 -2.79754 40
      vertex 22 1.89488 40
    endloop
  endfacet
  facet normal 0 0 1
    outer loop
      vertex 13.5967 -1.84649 40
      vertex 4.70378 -4.75348 40
      vertex 13.9058 -2.79754 40
    endloop
  endfacet
  facet normal -0 0 1
    outer loop
      vertex 4.59925 -3.75896 40
      vertex 4.70378 -4.75348 40
      vertex 13.5967 -1.84649 40
    endloop
  endfacet
  facet normal -0 0 1
    outer loop
      vertex -4.59925 -3.75896 40
      vertex 4.70378 -4.75348 40
      vertex 4.59925 -3.75896 40
    endloop
  endfacet
  facet normal 0 0 1
    outer loop
      vertex -4.59925 -3.75896 40
      vertex -4.70378 -4.75348 40
      vertex 4.70378 -4.75348 40
    endloop
  endfacet
  facet normal 0 0 1
    outer loop
      vertex -13.5967 -1.84649 40
      vertex -4.70378 -4.75348 40
      vertex -4.59925 -3.75896 40
    endloop
  endfacet
  facet normal 0 0 1
    outer loop
      vertex -13.5967 -1.84649 40
      vertex -13.9058 -2.79754 40
      vertex -4.70378 -4.75348 40
    endloop
  endfacet
  facet normal 0 0 1
    outer loop
      vertex -22 1.89488 40
      vertex -13.9058 -2.79754 40
      vertex -13.5967 -1.84649 40
    endloop
  endfacet
  facet normal 0 0 1
    outer loop
      vertex -22 1.89488 40
      vertex -22.5 1.02886 40
      vertex -13.9058 -2.79754 40
    endloop
  endfacet
  facet normal 0 0 1
    outer loop
      vertex -29.4417 7.30163 40
      vertex -22.5 1.02886 40
      vertex -22 1.89488 40
    endloop
  endfacet
  facet normal 0 0 1
    outer loop
      vertex -29.4417 7.30163 40
      vertex -30.1109 6.55848 40
      vertex -22.5 1.02886 40
    endloop
  endfacet
  facet normal 0 0 1
    outer loop
      vertex -35.5967 14.1374 40
      vertex -30.1109 6.55848 40
      vertex -29.4417 7.30163 40
    endloop
  endfacet
  facet normal 0 0 1
    outer loop
      vertex -35.5967 14.1374 40
      vertex -36.4058 13.5497 40
      vertex -30.1109 6.55848 40
    endloop
  endfacet
  facet normal 0 0 1
    outer loop
      vertex -40.196 22.1036 40
      vertex -36.4058 13.5497 40
      vertex -35.5967 14.1374 40
    endloop
  endfacet
  facet normal 0 0 1
    outer loop
      vertex -40.196 22.1036 40
      vertex -41.1095 21.6969 40
      vertex -36.4058 13.5497 40
    endloop
  endfacet
  facet normal 0 0 1
    outer loop
      vertex -43.0385 30.8519 40
      vertex -41.1095 21.6969 40
      vertex -40.196 22.1036 40
    endloop
  endfacet
  facet normal 0 0 1
    outer loop
      vertex -43.0385 30.8519 40
      vertex -44.0166 30.644 40
      vertex -41.1095 21.6969 40
    endloop
  endfacet
  facet normal 0 0 1
    outer loop
      vertex -44 40 40
      vertex -44.0166 30.644 40
      vertex -43.0385 30.8519 40
    endloop
  endfacet
  facet normal 0 0 1
    outer loop
      vertex -45 40 40
      vertex -44 40 40
      vertex -44.0166 49.356 40
    endloop
  endfacet
  facet normal 0 0 1
    outer loop
      vertex -44 40 40
      vertex -45 40 40
      vertex -44.0166 30.644 40
    endloop
  endfacet
  facet normal 0.866029 -0.499993 0
    outer loop
      vertex 36.4058 13.5497 40
      vertex 41.1095 21.6969 0
      vertex 41.1095 21.6969 40
    endloop
  endfacet
  facet normal 0.866029 -0.499993 0
    outer loop
      vertex 41.1095 21.6969 0
      vertex 36.4058 13.5497 40
      vertex 36.4058 13.5497 0
    endloop
  endfacet
  facet normal -0.994521 -0.104533 0
    outer loop
      vertex -44.0166 30.644 0
      vertex -45 40 40
      vertex -45 40 0
    endloop
  endfacet
  facet normal -0.994521 -0.104533 0
    outer loop
      vertex -45 40 40
      vertex -44.0166 30.644 0
      vertex -44.0166 30.644 40
    endloop
  endfacet
  facet normal -0.743146 -0.669129 0
    outer loop
      vertex -30.1109 6.55848 0
      vertex -36.4058 13.5497 40
      vertex -36.4058 13.5497 0
    endloop
  endfacet
  facet normal -0.743146 -0.669129 0
    outer loop
      vertex -36.4058 13.5497 40
      vertex -30.1109 6.55848 0
      vertex -30.1109 6.55848 40
    endloop
  endfacet
  facet normal 0.207911 -0.978148 0
    outer loop
      vertex 4.70378 -4.75348 0
      vertex 13.9058 -2.79754 40
      vertex 4.70378 -4.75348 40
    endloop
  endfacet
  facet normal 0.207911 -0.978148 0
    outer loop
      vertex 13.9058 -2.79754 40
      vertex 4.70378 -4.75348 0
      vertex 13.9058 -2.79754 0
    endloop
  endfacet
  facet normal 0.406738 -0.913545 0
    outer loop
      vertex 13.9058 -2.79754 0
      vertex 22.5 1.02886 40
      vertex 13.9058 -2.79754 40
    endloop
  endfacet
  facet normal 0.406738 -0.913545 0
    outer loop
      vertex 22.5 1.02886 40
      vertex 13.9058 -2.79754 0
      vertex 22.5 1.02886 0
    endloop
  endfacet
  facet normal -0.406738 -0.913545 0
    outer loop
      vertex -22.5 1.02886 0
      vertex -13.9058 -2.79754 40
      vertex -22.5 1.02886 40
    endloop
  endfacet
  facet normal -0.406738 -0.913545 -0
    outer loop
      vertex -13.9058 -2.79754 40
      vertex -22.5 1.02886 0
      vertex -13.9058 -2.79754 0
    endloop
  endfacet
  facet normal 0 -1 0
    outer loop
      vertex -4.70378 -4.75348 0
      vertex 4.70378 -4.75348 40
      vertex -4.70378 -4.75348 40
    endloop
  endfacet
  facet normal 0 -1 -0
    outer loop
      vertex 4.70378 -4.75348 40
      vertex -4.70378 -4.75348 0
      vertex 4.70378 -4.75348 0
    endloop
  endfacet
  facet normal 0 0 -1
    outer loop
      vertex 44 40 0
      vertex 45 40 0
      vertex 44.0166 30.644 0
    endloop
  endfacet
  facet normal 0 0 -1
    outer loop
      vertex 45 40 0
      vertex 44 40 0
      vertex 44.0166 49.356 0
    endloop
  endfacet
  facet normal 0 0 -1
    outer loop
      vertex 44.0166 30.644 0
      vertex 43.0385 30.8519 0
      vertex 44 40 0
    endloop
  endfacet
  facet normal 0 0 -1
    outer loop
      vertex 41.1095 21.6969 0
      vertex 43.0385 30.8519 0
      vertex 44.0166 30.644 0
    endloop
  endfacet
  facet normal 0 0 -1
    outer loop
      vertex 41.1095 21.6969 0
      vertex 40.196 22.1036 0
      vertex 43.0385 30.8519 0
    endloop
  endfacet
  facet normal 0 0 -1
    outer loop
      vertex 36.4058 13.5497 0
      vertex 40.196 22.1036 0
      vertex 41.1095 21.6969 0
    endloop
  endfacet
  facet normal 0 0 -1
    outer loop
      vertex 36.4058 13.5497 0
      vertex 35.5967 14.1374 0
      vertex 40.196 22.1036 0
    endloop
  endfacet
  facet normal 0 0 -1
    outer loop
      vertex 30.1109 6.55848 0
      vertex 35.5967 14.1374 0
      vertex 36.4058 13.5497 0
    endloop
  endfacet
  facet normal 0 0 -1
    outer loop
      vertex 30.1109 6.55848 0
      vertex 29.4417 7.30163 0
      vertex 35.5967 14.1374 0
    endloop
  endfacet
  facet normal 0 0 -1
    outer loop
      vertex 22.5 1.02886 0
      vertex 29.4417 7.30163 0
      vertex 30.1109 6.55848 0
    endloop
  endfacet
  facet normal 0 0 -1
    outer loop
      vertex 22.5 1.02886 0
      vertex 22 1.89488 0
      vertex 29.4417 7.30163 0
    endloop
  endfacet
  facet normal 0 0 -1
    outer loop
      vertex 13.9058 -2.79754 0
      vertex 22 1.89488 0
      vertex 22.5 1.02886 0
    endloop
  endfacet
  facet normal 0 0 -1
    outer loop
      vertex 13.9058 -2.79754 0
      vertex 13.5967 -1.84649 0
      vertex 22 1.89488 0
    endloop
  endfacet
  facet normal 0 0 -1
    outer loop
      vertex 4.70378 -4.75348 0
      vertex 13.5967 -1.84649 0
      vertex 13.9058 -2.79754 0
    endloop
  endfacet
  facet normal 0 0 -1
    outer loop
      vertex 4.70378 -4.75348 0
      vertex 4.59925 -3.75896 0
      vertex 13.5967 -1.84649 0
    endloop
  endfacet
  facet normal 0 0 -1
    outer loop
      vertex 4.70378 -4.75348 0
      vertex -4.59925 -3.75896 0
      vertex 4.59925 -3.75896 0
    endloop
  endfacet
  facet normal 0 0 -1
    outer loop
      vertex -4.70378 -4.75348 0
      vertex -4.59925 -3.75896 0
      vertex 4.70378 -4.75348 0
    endloop
  endfacet
  facet normal 0 0 -1
    outer loop
      vertex -4.70378 -4.75348 0
      vertex -13.5967 -1.84649 0
      vertex -4.59925 -3.75896 0
    endloop
  endfacet
  facet normal 0 0 -1
    outer loop
      vertex -13.9058 -2.79754 0
      vertex -13.5967 -1.84649 0
      vertex -4.70378 -4.75348 0
    endloop
  endfacet
  facet normal 0 0 -1
    outer loop
      vertex -13.9058 -2.79754 0
      vertex -22 1.89488 0
      vertex -13.5967 -1.84649 0
    endloop
  endfacet
  facet normal 0 0 -1
    outer loop
      vertex -22.5 1.02886 0
      vertex -22 1.89488 0
      vertex -13.9058 -2.79754 0
    endloop
  endfacet
  facet normal 0 0 -1
    outer loop
      vertex -22.5 1.02886 0
      vertex -29.4417 7.30163 0
      vertex -22 1.89488 0
    endloop
  endfacet
  facet normal 0 0 -1
    outer loop
      vertex -30.1109 6.55848 0
      vertex -29.4417 7.30163 0
      vertex -22.5 1.02886 0
    endloop
  endfacet
  facet normal 0 0 -1
    outer loop
      vertex -30.1109 6.55848 0
      vertex -35.5967 14.1374 0
      vertex -29.4417 7.30163 0
    endloop
  endfacet
  facet normal 0 0 -1
    outer loop
      vertex -36.4058 13.5497 0
      vertex -35.5967 14.1374 0
      vertex -30.1109 6.55848 0
    endloop
  endfacet
  facet normal 0 0 -1
    outer loop
      vertex -36.4058 13.5497 0
      vertex -40.196 22.1036 0
      vertex -35.5967 14.1374 0
    endloop
  endfacet
  facet normal 0 0 -1
    outer loop
      vertex -41.1095 21.6969 0
      vertex -40.196 22.1036 0
      vertex -36.4058 13.5497 0
    endloop
  endfacet
  facet normal 0 0 -1
    outer loop
      vertex -41.1095 21.6969 0
      vertex -43.0385 30.8519 0
      vertex -40.196 22.1036 0
    endloop
  endfacet
  facet normal -0 0 -1
    outer loop
      vertex -43.0385 30.8519 0
      vertex -44.0166 30.644 0
      vertex -44 40 0
    endloop
  endfacet
  facet normal 0 0 -1
    outer loop
      vertex -44.0166 30.644 0
      vertex -43.0385 30.8519 0
      vertex -41.1095 21.6969 0
    endloop
  endfacet
  facet normal 0 0 -1
    outer loop
      vertex 43.0385 49.1481 0
      vertex 44.0166 49.356 0
      vertex 44 40 0
    endloop
  endfacet
  facet normal 0 0 -1
    outer loop
      vertex 43.0385 49.1481 0
      vertex 41.1095 58.3031 0
      vertex 44.0166 49.356 0
    endloop
  endfacet
  facet normal 0 0 -1
    outer loop
      vertex 40.196 57.8964 0
      vertex 41.1095 58.3031 0
      vertex 43.0385 49.1481 0
    endloop
  endfacet
  facet normal 0 0 -1
    outer loop
      vertex 40.196 57.8964 0
      vertex 36.4058 66.4503 0
      vertex 41.1095 58.3031 0
    endloop
  endfacet
  facet normal 0 0 -1
    outer loop
      vertex 35.5967 65.8625 0
      vertex 36.4058 66.4503 0
      vertex 40.196 57.8964 0
    endloop
  endfacet
  facet normal 0 0 -1
    outer loop
      vertex 35.5967 65.8625 0
      vertex 30.1109 73.4415 0
      vertex 36.4058 66.4503 0
    endloop
  endfacet
  facet normal 0 0 -1
    outer loop
      vertex 29.4417 72.6984 0
      vertex 30.1109 73.4415 0
      vertex 35.5967 65.8625 0
    endloop
  endfacet
  facet normal 0 0 -1
    outer loop
      vertex 29.4417 72.6984 0
      vertex 22.5 78.9711 0
      vertex 30.1109 73.4415 0
    endloop
  endfacet
  facet normal 0 0 -1
    outer loop
      vertex 22 78.1051 0
      vertex 22.5 78.9711 0
      vertex 29.4417 72.6984 0
    endloop
  endfacet
  facet normal 0 0 -1
    outer loop
      vertex 22 78.1051 0
      vertex 13.9058 82.7975 0
      vertex 22.5 78.9711 0
    endloop
  endfacet
  facet normal 0 0 -1
    outer loop
      vertex 13.5967 81.8465 0
      vertex 13.9058 82.7975 0
      vertex 22 78.1051 0
    endloop
  endfacet
  facet normal 0 0 -1
    outer loop
      vertex 13.5967 81.8465 0
      vertex 4.70378 84.7535 0
      vertex 13.9058 82.7975 0
    endloop
  endfacet
  facet normal 0 0 -1
    outer loop
      vertex 4.59925 83.759 0
      vertex 4.70378 84.7535 0
      vertex 13.5967 81.8465 0
    endloop
  endfacet
  facet normal 0 0 -1
    outer loop
      vertex -4.59925 83.759 0
      vertex 4.70378 84.7535 0
      vertex 4.59925 83.759 0
    endloop
  endfacet
  facet normal 0 0 -1
    outer loop
      vertex -4.59925 83.759 0
      vertex -4.70378 84.7535 0
      vertex 4.70378 84.7535 0
    endloop
  endfacet
  facet normal 0 0 -1
    outer loop
      vertex -13.5967 81.8465 0
      vertex -4.70378 84.7535 0
      vertex -4.59925 83.759 0
    endloop
  endfacet
  facet normal 0 0 -1
    outer loop
      vertex -13.5967 81.8465 0
      vertex -13.9058 82.7975 0
      vertex -4.70378 84.7535 0
    endloop
  endfacet
  facet normal 0 0 -1
    outer loop
      vertex -22 78.1051 0
      vertex -13.9058 82.7975 0
      vertex -13.5967 81.8465 0
    endloop
  endfacet
  facet normal 0 0 -1
    outer loop
      vertex -22 78.1051 0
      vertex -22.5 78.9711 0
      vertex -13.9058 82.7975 0
    endloop
  endfacet
  facet normal 0 0 -1
    outer loop
      vertex -29.4417 72.6984 0
      vertex -22.5 78.9711 0
      vertex -22 78.1051 0
    endloop
  endfacet
  facet normal 0 0 -1
    outer loop
      vertex -29.4417 72.6984 0
      vertex -30.1109 73.4415 0
      vertex -22.5 78.9711 0
    endloop
  endfacet
  facet normal 0 0 -1
    outer loop
      vertex -35.5967 65.8625 0
      vertex -30.1109 73.4415 0
      vertex -29.4417 72.6984 0
    endloop
  endfacet
  facet normal 0 0 -1
    outer loop
      vertex -35.5967 65.8625 0
      vertex -36.4058 66.4503 0
      vertex -30.1109 73.4415 0
    endloop
  endfacet
  facet normal 0 0 -1
    outer loop
      vertex -40.196 57.8964 0
      vertex -36.4058 66.4503 0
      vertex -35.5967 65.8625 0
    endloop
  endfacet
  facet normal 0 0 -1
    outer loop
      vertex -40.196 57.8964 0
      vertex -41.1095 58.3031 0
      vertex -36.4058 66.4503 0
    endloop
  endfacet
  facet normal 0 0 -1
    outer loop
      vertex -43.0385 49.1481 0
      vertex -41.1095 58.3031 0
      vertex -40.196 57.8964 0
    endloop
  endfacet
  facet normal 0 0 -1
    outer loop
      vertex -43.0385 49.1481 0
      vertex -44.0166 49.356 0
      vertex -41.1095 58.3031 0
    endloop
  endfacet
  facet normal 0 0 -1
    outer loop
      vertex -44 40 0
      vertex -44.0166 49.356 0
      vertex -43.0385 49.1481 0
    endloop
  endfacet
  facet normal 0 0 -1
    outer loop
      vertex -45 40 0
      vertex -44 40 0
      vertex -44.0166 30.644 0
    endloop
  endfacet
  facet normal 0 0 -1
    outer loop
      vertex -44 40 0
      vertex -45 40 0
      vertex -44.0166 49.356 0
    endloop
  endfacet
  facet normal -0.951056 -0.309018 0
    outer loop
      vertex -41.1095 21.6969 0
      vertex -44.0166 30.644 40
      vertex -44.0166 30.644 0
    endloop
  endfacet
  facet normal -0.951056 -0.309018 0
    outer loop
      vertex -44.0166 30.644 40
      vertex -41.1095 21.6969 0
      vertex -41.1095 21.6969 40
    endloop
  endfacet
  facet normal 0.743146 -0.669129 0
    outer loop
      vertex 30.1109 6.55848 40
      vertex 36.4058 13.5497 0
      vertex 36.4058 13.5497 40
    endloop
  endfacet
  facet normal 0.743146 -0.669129 0
    outer loop
      vertex 36.4058 13.5497 0
      vertex 30.1109 6.55848 40
      vertex 30.1109 6.55848 0
    endloop
  endfacet
  facet normal -0.207911 -0.978148 0
    outer loop
      vertex -13.9058 -2.79754 0
      vertex -4.70378 -4.75348 40
      vertex -13.9058 -2.79754 40
    endloop
  endfacet
  facet normal -0.207911 -0.978148 -0
    outer loop
      vertex -4.70378 -4.75348 40
      vertex -13.9058 -2.79754 0
      vertex -4.70378 -4.75348 0
    endloop
  endfacet
  facet normal -0.866022 -0.500006 0
    outer loop
      vertex 40.196 57.8964 0
      vertex 35.5967 65.8625 40
      vertex 35.5967 65.8625 0
    endloop
  endfacet
  facet normal -0.866022 -0.500006 0
    outer loop
      vertex 35.5967 65.8625 40
      vertex 40.196 57.8964 0
      vertex 40.196 57.8964 40
    endloop
  endfacet
  facet normal -0.743149 -0.669126 0
    outer loop
      vertex 35.5967 65.8625 0
      vertex 29.4417 72.6984 40
      vertex 29.4417 72.6984 0
    endloop
  endfacet
  facet normal -0.743149 -0.669126 0
    outer loop
      vertex 29.4417 72.6984 40
      vertex 35.5967 65.8625 0
      vertex 35.5967 65.8625 40
    endloop
  endfacet
  facet normal -0.207915 -0.978147 0
    outer loop
      vertex 4.59925 83.759 0
      vertex 13.5967 81.8465 40
      vertex 4.59925 83.759 40
    endloop
  endfacet
  facet normal -0.207915 -0.978147 -0
    outer loop
      vertex 13.5967 81.8465 40
      vertex 4.59925 83.759 0
      vertex 13.5967 81.8465 0
    endloop
  endfacet
  facet normal 0.406738 -0.913545 0
    outer loop
      vertex -22 78.1051 0
      vertex -13.5967 81.8465 40
      vertex -22 78.1051 40
    endloop
  endfacet
  facet normal 0.406738 -0.913545 0
    outer loop
      vertex -13.5967 81.8465 40
      vertex -22 78.1051 0
      vertex -13.5967 81.8465 0
    endloop
  endfacet
  facet normal -0.994522 0.104528 0
    outer loop
      vertex 43.0385 30.8519 0
      vertex 44 40 40
      vertex 44 40 0
    endloop
  endfacet
  facet normal -0.994522 0.104528 0
    outer loop
      vertex 44 40 40
      vertex 43.0385 30.8519 0
      vertex 43.0385 30.8519 40
    endloop
  endfacet
  facet normal -0.951056 -0.309017 0
    outer loop
      vertex 43.0385 49.1481 0
      vertex 40.196 57.8964 40
      vertex 40.196 57.8964 0
    endloop
  endfacet
  facet normal -0.951056 -0.309017 0
    outer loop
      vertex 40.196 57.8964 40
      vertex 43.0385 49.1481 0
      vertex 43.0385 49.1481 40
    endloop
  endfacet
  facet normal -0.587784 -0.809018 0
    outer loop
      vertex 22 78.1051 0
      vertex 29.4417 72.6984 40
      vertex 22 78.1051 40
    endloop
  endfacet
  facet normal -0.587784 -0.809018 -0
    outer loop
      vertex 29.4417 72.6984 40
      vertex 22 78.1051 0
      vertex 29.4417 72.6984 0
    endloop
  endfacet
  facet normal 0 -1 0
    outer loop
      vertex -4.59925 83.759 0
      vertex 4.59925 83.759 40
      vertex -4.59925 83.759 40
    endloop
  endfacet
  facet normal 0 -1 -0
    outer loop
      vertex 4.59925 83.759 40
      vertex -4.59925 83.759 0
      vertex 4.59925 83.759 0
    endloop
  endfacet
  facet normal -0.406738 -0.913545 0
    outer loop
      vertex 13.5967 81.8465 0
      vertex 22 78.1051 40
      vertex 13.5967 81.8465 40
    endloop
  endfacet
  facet normal -0.406738 -0.913545 -0
    outer loop
      vertex 22 78.1051 40
      vertex 13.5967 81.8465 0
      vertex 22 78.1051 0
    endloop
  endfacet
  facet normal 0.994522 -0.104528 0
    outer loop
      vertex -44 40 40
      vertex -43.0385 49.1481 0
      vertex -43.0385 49.1481 40
    endloop
  endfacet
  facet normal 0.994522 -0.104528 0
    outer loop
      vertex -43.0385 49.1481 0
      vertex -44 40 40
      vertex -44 40 0
    endloop
  endfacet
  facet normal 0.866022 -0.500006 0
    outer loop
      vertex -40.196 57.8964 40
      vertex -35.5967 65.8625 0
      vertex -35.5967 65.8625 40
    endloop
  endfacet
  facet normal 0.866022 -0.500006 0
    outer loop
      vertex -35.5967 65.8625 0
      vertex -40.196 57.8964 40
      vertex -40.196 57.8964 0
    endloop
  endfacet
  facet normal 0.587784 -0.809018 0
    outer loop
      vertex -29.4417 72.6984 0
      vertex -22 78.1051 40
      vertex -29.4417 72.6984 40
    endloop
  endfacet
  facet normal 0.587784 -0.809018 0
    outer loop
      vertex -22 78.1051 40
      vertex -29.4417 72.6984 0
      vertex -22 78.1051 0
    endloop
  endfacet
  facet normal 0.207915 -0.978147 0
    outer loop
      vertex -13.5967 81.8465 0
      vertex -4.59925 83.759 40
      vertex -13.5967 81.8465 40
    endloop
  endfacet
  facet normal 0.207915 -0.978147 0
    outer loop
      vertex -4.59925 83.759 40
      vertex -13.5967 81.8465 0
      vertex -4.59925 83.759 0
    endloop
  endfacet
  facet normal 0.743149 -0.669126 0
    outer loop
      vertex -35.5967 65.8625 40
      vertex -29.4417 72.6984 0
      vertex -29.4417 72.6984 40
    endloop
  endfacet
  facet normal 0.743149 -0.669126 0
    outer loop
      vertex -29.4417 72.6984 0
      vertex -35.5967 65.8625 40
      vertex -35.5967 65.8625 0
    endloop
  endfacet
  facet normal -0.994522 -0.104528 0
    outer loop
      vertex 44 40 0
      vertex 43.0385 49.1481 40
      vertex 43.0385 49.1481 0
    endloop
  endfacet
  facet normal -0.994522 -0.104528 0
    outer loop
      vertex 43.0385 49.1481 40
      vertex 44 40 0
      vertex 44 40 40
    endloop
  endfacet
  facet normal -0.951056 0.309017 0
    outer loop
      vertex 40.196 22.1036 0
      vertex 43.0385 30.8519 40
      vertex 43.0385 30.8519 0
    endloop
  endfacet
  facet normal -0.951056 0.309017 0
    outer loop
      vertex 43.0385 30.8519 40
      vertex 40.196 22.1036 0
      vertex 40.196 22.1036 40
    endloop
  endfacet
  facet normal 0.866025 0.500001 0
    outer loop
      vertex -35.5967 14.1374 40
      vertex -40.196 22.1036 0
      vertex -40.196 22.1036 40
    endloop
  endfacet
  facet normal 0.866025 0.500001 0
    outer loop
      vertex -40.196 22.1036 0
      vertex -35.5967 14.1374 40
      vertex -35.5967 14.1374 0
    endloop
  endfacet
  facet normal -0.587788 0.809015 0
    outer loop
      vertex 29.4417 7.30163 0
      vertex 22 1.89488 40
      vertex 29.4417 7.30163 40
    endloop
  endfacet
  facet normal -0.587788 0.809015 0
    outer loop
      vertex 22 1.89488 40
      vertex 29.4417 7.30163 0
      vertex 22 1.89488 0
    endloop
  endfacet
  facet normal 0.951056 -0.309017 0
    outer loop
      vertex -43.0385 49.1481 40
      vertex -40.196 57.8964 0
      vertex -40.196 57.8964 40
    endloop
  endfacet
  facet normal 0.951056 -0.309017 0
    outer loop
      vertex -40.196 57.8964 0
      vertex -43.0385 49.1481 40
      vertex -43.0385 49.1481 0
    endloop
  endfacet
  facet normal -0.866025 0.500001 0
    outer loop
      vertex 35.5967 14.1374 0
      vertex 40.196 22.1036 40
      vertex 40.196 22.1036 0
    endloop
  endfacet
  facet normal -0.866025 0.500001 0
    outer loop
      vertex 40.196 22.1036 40
      vertex 35.5967 14.1374 0
      vertex 35.5967 14.1374 40
    endloop
  endfacet
  facet normal 0 1 -0
    outer loop
      vertex 4.59925 -3.75896 0
      vertex -4.59925 -3.75896 40
      vertex 4.59925 -3.75896 40
    endloop
  endfacet
  facet normal 0 1 0
    outer loop
      vertex -4.59925 -3.75896 40
      vertex 4.59925 -3.75896 0
      vertex -4.59925 -3.75896 0
    endloop
  endfacet
  facet normal -0.207912 0.978148 0
    outer loop
      vertex 13.5967 -1.84649 0
      vertex 4.59925 -3.75896 40
      vertex 13.5967 -1.84649 40
    endloop
  endfacet
  facet normal -0.207912 0.978148 0
    outer loop
      vertex 4.59925 -3.75896 40
      vertex 13.5967 -1.84649 0
      vertex 4.59925 -3.75896 0
    endloop
  endfacet
  facet normal -0.406735 0.913546 0
    outer loop
      vertex 22 1.89488 0
      vertex 13.5967 -1.84649 40
      vertex 22 1.89488 40
    endloop
  endfacet
  facet normal -0.406735 0.913546 0
    outer loop
      vertex 13.5967 -1.84649 40
      vertex 22 1.89488 0
      vertex 13.5967 -1.84649 0
    endloop
  endfacet
  facet normal 0.207912 0.978148 -0
    outer loop
      vertex -4.59925 -3.75896 0
      vertex -13.5967 -1.84649 40
      vertex -4.59925 -3.75896 40
    endloop
  endfacet
  facet normal 0.207912 0.978148 0
    outer loop
      vertex -13.5967 -1.84649 40
      vertex -4.59925 -3.75896 0
      vertex -13.5967 -1.84649 0
    endloop
  endfacet
  facet normal 0.951056 0.309017 0
    outer loop
      vertex -40.196 22.1036 40
      vertex -43.0385 30.8519 0
      vertex -43.0385 30.8519 40
    endloop
  endfacet
  facet normal 0.951056 0.309017 0
    outer loop
      vertex -43.0385 30.8519 0
      vertex -40.196 22.1036 40
      vertex -40.196 22.1036 0
    endloop
  endfacet
  facet normal 0.994522 0.104528 0
    outer loop
      vertex -43.0385 30.8519 40
      vertex -44 40 0
      vertex -44 40 40
    endloop
  endfacet
  facet normal 0.994522 0.104528 0
    outer loop
      vertex -44 40 0
      vertex -43.0385 30.8519 40
      vertex -43.0385 30.8519 0
    endloop
  endfacet
  facet normal 0.743142 0.669133 0
    outer loop
      vertex -29.4417 7.30163 40
      vertex -35.5967 14.1374 0
      vertex -35.5967 14.1374 40
    endloop
  endfacet
  facet normal 0.743142 0.669133 0
    outer loop
      vertex -35.5967 14.1374 0
      vertex -29.4417 7.30163 40
      vertex -29.4417 7.30163 0
    endloop
  endfacet
  facet normal -0.743142 0.669133 0
    outer loop
      vertex 29.4417 7.30163 0
      vertex 35.5967 14.1374 40
      vertex 35.5967 14.1374 0
    endloop
  endfacet
  facet normal -0.743142 0.669133 0
    outer loop
      vertex 35.5967 14.1374 40
      vertex 29.4417 7.30163 0
      vertex 29.4417 7.30163 40
    endloop
  endfacet
  facet normal 0.406735 0.913546 -0
    outer loop
      vertex -13.5967 -1.84649 0
      vertex -22 1.89488 40
      vertex -13.5967 -1.84649 40
    endloop
  endfacet
  facet normal 0.406735 0.913546 0
    outer loop
      vertex -22 1.89488 40
      vertex -13.5967 -1.84649 0
      vertex -22 1.89488 0
    endloop
  endfacet
  facet normal 0.587788 0.809015 -0
    outer loop
      vertex -22 1.89488 0
      vertex -29.4417 7.30163 40
      vertex -22 1.89488 40
    endloop
  endfacet
  facet normal 0.587788 0.809015 0
    outer loop
      vertex -29.4417 7.30163 40
      vertex -22 1.89488 0
      vertex -29.4417 7.30163 0
    endloop
  endfacet
endsolid OpenSCAD_Model
